<?xml version="1.0" standalone="no"?>
<!DOCTYPE svg PUBLIC "-//W3C//DTD SVG 20010904//EN"
 "http://www.w3.org/TR/2001/REC-SVG-20010904/DTD/svg10.dtd">
<svg version="1.0" xmlns="http://www.w3.org/2000/svg"
 width="128.000000pt" height="128.000000pt" viewBox="0 0 128.000000 128.000000"
 preserveAspectRatio="xMidYMid meet">
<metadata>
Created by potrace 1.11, written by Peter Selinger 2001-2013
</metadata>
<g transform="translate(0.000000,128.000000) scale(0.100000,-0.100000)"
fill="#000000" stroke="none">
<path d="M202 1228 c-17 -17 -17 -1159 0 -1176 17 -17 859 -17 876 0 9 9 12
127 12 470 l0 458 -129 0 c-81 0 -132 4 -136 11 -4 5 -6 64 -6 130 l2 119
-304 0 c-222 0 -306 -3 -315 -12z m741 -371 c26 -26 47 -52 47 -56 0 -4 -9
-16 -20 -26 -21 -19 -22 -18 -83 43 -60 61 -61 62 -42 80 26 25 40 19 98 -41z
m-430 -99 c-21 -24 -8 -36 16 -14 17 15 19 15 32 0 11 -14 11 -18 -6 -30 -25
-18 -10 -32 17 -15 26 16 48 0 29 -23 -20 -24 -9 -42 12 -21 14 14 20 15 33 5
13 -11 13 -15 -2 -31 -22 -24 -12 -34 15 -17 30 19 51 -4 28 -30 -22 -24 -9
-37 15 -15 24 21 49 3 29 -21 -18 -22 -4 -40 16 -21 12 12 18 13 29 4 12 -10
12 -15 -2 -30 -22 -24 -12 -34 15 -17 16 10 23 10 33 0 9 -9 9 -15 0 -24 -7
-7 -12 -19 -12 -27 0 -11 4 -11 19 3 11 10 25 15 30 11 14 -8 14 -35 1 -35 -5
0 -10 -7 -10 -15 0 -19 14 -19 30 0 10 12 16 13 27 4 11 -10 11 -15 -2 -29
-20 -22 -2 -38 21 -19 11 9 18 9 27 0 8 -8 -3 -25 -48 -71 -33 -33 -64 -60
-70 -60 -11 0 -537 522 -543 539 -2 5 25 37 59 71 l62 62 58 -58 c55 -55 58
-59 42 -76z m354 33 l60 -59 -84 -84 -83 -83 -62 62 -62 62 80 80 c43 44 82
80 85 80 3 1 33 -26 66 -58z m-318 -320 l58 -60 -64 -63 -63 -63 -62 62 -61
61 59 61 c32 33 62 61 67 61 4 0 34 -27 66 -59z m-136 -139 l57 -58 -80 -21
c-55 -14 -80 -17 -80 -10 0 21 34 147 40 147 3 0 31 -26 63 -58z"/>
<path d="M366 801 c-7 -10 3 -41 13 -41 17 1 33 20 28 34 -7 17 -32 22 -41 7z"/>
<path d="M860 1122 l0 -102 100 0 c55 0 100 3 100 6 0 3 -6 11 -13 17 -8 7
-53 50 -100 97 l-87 85 0 -103z"/>
</g>
</svg>
